# xmcd
#
# Track frame offsets: 
#        150
#        19655
#        40452
#        61601
#        101168
#        123534
#        141783
#        182123
#        199700
#        213745
#        233707
#        245477
#
# Disc length: 3522 seconds
#
# Revision: 5
# Processed by: cddbd v1.5.2PL0 Copyright (c) Steve Scherf et al.
# Submitted via: ExactAudioCopy v1.3
#
DISCID=ad0dc00c
DTITLE=Popa Chubby - Universal Breakdown Blues
DYEAR=2013
DGENRE=Blues Rock
TTITLE0=I Don't Want Nobody
TTITLE1=I Ain't Giving Up
TTITLE2=Universal Breakdown Blues
TTITLE3=The Peoples Blues
TTITLE4=Rock Me Baby
TTITLE5=69 Dollars
TTITLE6=Over The Rainbow
TTITLE7=I Need A Lil' Mojo
TTITLE8=Danger Man
TTITLE9=Goin' Back To Amsterdam (Reefer Smokin' Man)
TTITLE10=The Finger Bangin' Boogie
TTITLE11=Mind Bender
EXTD=YEAR: 2013
EXTT0=
EXTT1=
EXTT2=
EXTT3=
EXTT4=
EXTT5=
EXTT6=
EXTT7=
EXTT8=
EXTT9=
EXTT10=
EXTT11=
PLAYORDER=
